<svg width="40" height="40" viewBox="0 0 40 40" fill="none" xmlns="http://www.w3.org/2000/svg">
<g id="majesticons:video">
<path id="Vector" fill-rule="evenodd" clip-rule="evenodd" d="M8.33325 8.33334C7.00717 8.33334 5.7354 8.86013 4.79772 9.79781C3.86004 10.7355 3.33325 12.0073 3.33325 13.3333V26.6667C3.33325 27.9928 3.86004 29.2645 4.79772 30.2022C5.7354 31.1399 7.00717 31.6667 8.33325 31.6667H24.9999C26.326 31.6667 27.5978 31.1399 28.5355 30.2022C29.4731 29.2645 29.9999 27.9928 29.9999 26.6667V24.0233L33.8216 27.845C34.0547 28.078 34.3516 28.2367 34.6749 28.301C34.9981 28.3653 35.3332 28.3323 35.6377 28.2061C35.9422 28.08 36.2024 27.8665 36.3856 27.5924C36.5687 27.3184 36.6665 26.9963 36.6666 26.6667V13.3333C36.6665 13.0038 36.5687 12.6816 36.3856 12.4076C36.2024 12.1336 35.9422 11.92 35.6377 11.7939C35.3332 11.6678 34.9981 11.6348 34.6749 11.699C34.3516 11.7633 34.0547 11.922 33.8216 12.155L29.9999 15.9767V13.3333C29.9999 12.0073 29.4731 10.7355 28.5355 9.79781C27.5978 8.86013 26.326 8.33334 24.9999 8.33334H8.33325Z" fill="#A0A0A0"/>
</g>
</svg>
